
<svg width="200" height="29" viewBox="0 0 200 29" fill="none" xmlns="http://www.w3.org/2000/svg">
<g clip-path="url(#clip0_1684_365)">
<path d="M42.8127 20.3262C41.703 19.7129 40.8268 18.866 40.1844 17.8146C39.5419 16.7341 39.2206 15.5368 39.2206 14.1934C39.2206 12.85 39.5419 11.6527 40.1844 10.5721C40.8268 9.49157 41.703 8.67387 42.8127 8.06059C43.9224 7.44731 45.1782 7.15527 46.58 7.15527C47.6897 7.15527 48.7411 7.3597 49.6464 7.73935C50.5809 8.119 51.3694 8.70307 52.0119 9.43317L50.3765 10.981C49.3835 9.90043 48.157 9.37476 46.6968 9.37476C45.7623 9.37476 44.9154 9.57919 44.1561 9.98804C43.3968 10.3969 42.8419 10.981 42.4038 11.7111C41.995 12.4412 41.7906 13.2589 41.7906 14.1934C41.7906 15.1279 41.995 15.9456 42.4038 16.6757C42.8127 17.4058 43.3968 17.9899 44.1561 18.3987C44.9154 18.8076 45.7331 19.012 46.6968 19.012C48.157 19.012 49.3835 18.4571 50.3765 17.3766L52.0119 18.9536C51.3694 19.7129 50.5809 20.2678 49.6464 20.6474C48.7119 21.0271 47.6897 21.2315 46.5508 21.2315C45.1782 21.2315 43.9224 20.9102 42.8127 20.3262Z" fill="black"/>
<path d="M56.8013 20.326C55.6916 19.7127 54.7863 18.8658 54.1438 17.7853C53.5013 16.7047 53.1801 15.5074 53.1801 14.164C53.1801 12.8206 53.5013 11.6233 54.1438 10.5427C54.7863 9.46218 55.6624 8.61528 56.8013 8.002C57.9111 7.38872 59.196 7.09668 60.5978 7.09668C61.9996 7.09668 63.2553 7.38872 64.3943 8.002C65.504 8.61528 66.4094 9.46218 67.0518 10.5135C67.6943 11.5941 68.0156 12.7914 68.0156 14.1348C68.0156 15.4782 67.6943 16.6755 67.0518 17.7561C66.4094 18.8366 65.5332 19.6543 64.3943 20.2676C63.2845 20.8809 61.9996 21.1729 60.5978 21.1729C59.196 21.2313 57.9111 20.9101 56.8013 20.326ZM63.0509 18.3693C63.781 17.9605 64.3651 17.3764 64.7739 16.6463C65.1828 15.9162 65.3872 15.0693 65.3872 14.164C65.3872 13.2587 65.1828 12.4118 64.7739 11.6817C64.3651 10.9516 63.781 10.3675 63.0509 9.95865C62.3208 9.54979 61.5031 9.34537 60.5686 9.34537C59.6633 9.34537 58.8164 9.54979 58.0863 9.95865C57.3562 10.3675 56.7721 10.9516 56.3633 11.6817C55.9544 12.4118 55.75 13.2587 55.75 14.164C55.75 15.0693 55.9544 15.9162 56.3633 16.6463C56.7721 17.3764 57.3562 17.9605 58.0863 18.3693C58.8164 18.7782 59.6341 18.9826 60.5686 18.9826C61.5031 18.9826 62.3208 18.7782 63.0509 18.3693Z" fill="black"/>
<path d="M70.6731 7.30127H76.6599C78.1201 7.30127 79.4342 7.59331 80.5732 8.14818C81.7121 8.70305 82.5882 9.52076 83.2307 10.5721C83.844 11.6234 84.1652 12.8208 84.1652 14.1642C84.1652 15.5367 83.844 16.7341 83.2307 17.7562C82.6174 18.8076 81.7121 19.5961 80.5732 20.1801C79.4342 20.735 78.1493 21.027 76.6891 21.027H70.6731V7.30127ZM76.5431 18.866C77.536 18.866 78.4413 18.6615 79.2006 18.2819C79.9599 17.9022 80.544 17.3474 80.9528 16.6465C81.3617 15.9456 81.5661 15.0987 81.5661 14.1642C81.5661 13.2296 81.3617 12.3827 80.9528 11.6818C80.544 10.9809 79.9599 10.4261 79.2006 10.0464C78.4413 9.66677 77.536 9.46235 76.5431 9.46235H73.2138V18.866H76.5431Z" fill="black"/>
<path d="M97.1609 18.8952V21.027H86.8812V7.30127H96.898V9.43314H89.4219V12.996H96.0511V15.0987H89.4219V18.8952H97.1609Z" fill="black"/>
<path d="M102.797 9.46235H98.2415V7.30127H109.894V9.46235H105.338V21.027H102.797V9.46235Z" fill="black"/>
<path d="M123.999 7.30127V21.027H121.458V15.1571H114.362V21.027H111.821V7.30127H114.362V12.9668H121.458V7.30127H123.999Z" fill="black"/>
<path d="M137.959 18.8952V21.027H127.679V7.30127H137.696V9.43314H130.22V12.996H136.849V15.0987H130.22V18.8952H137.959Z" fill="black"/>
<path d="M143.39 20.326C142.281 19.7127 141.375 18.8658 140.733 17.7853C140.09 16.7047 139.769 15.5074 139.769 14.164C139.769 12.8206 140.09 11.6233 140.733 10.5427C141.375 9.46218 142.251 8.61528 143.39 8.002C144.529 7.38872 145.785 7.09668 147.187 7.09668C148.589 7.09668 149.844 7.38872 150.983 8.002C152.093 8.61528 152.998 9.46218 153.641 10.5135C154.283 11.5941 154.605 12.7914 154.605 14.1348C154.605 15.4782 154.283 16.6755 153.641 17.7561C152.998 18.8366 152.122 19.6543 150.983 20.2676C149.874 20.8809 148.589 21.1729 147.187 21.1729C145.756 21.2313 144.5 20.9101 143.39 20.326ZM149.64 18.3693C150.37 17.9605 150.954 17.3764 151.363 16.6463C151.772 15.9162 151.976 15.0693 151.976 14.164C151.976 13.2587 151.772 12.4118 151.363 11.6817C150.954 10.9516 150.37 10.3675 149.64 9.95865C148.91 9.54979 148.092 9.34537 147.158 9.34537C146.252 9.34537 145.405 9.54979 144.675 9.95865C143.945 10.3675 143.361 10.9516 142.952 11.6817C142.544 12.4118 142.339 13.2587 142.339 14.164C142.339 15.0693 142.544 15.9162 142.952 16.6463C143.361 17.3764 143.945 17.9605 144.675 18.3693C145.405 18.7782 146.223 18.9826 147.158 18.9826C148.092 18.9826 148.91 18.7782 149.64 18.3693Z" fill="black"/>
<path d="M166.228 21.027L163.424 16.9969C163.307 16.9969 163.132 17.0261 162.899 17.0261H159.803V21.027H157.262V7.30127H162.899C164.096 7.30127 165.118 7.5057 165.994 7.88534C166.87 8.26499 167.542 8.84907 168.009 9.57916C168.477 10.3093 168.71 11.1854 168.71 12.1783C168.71 13.2004 168.447 14.1057 167.951 14.8358C167.454 15.5951 166.724 16.15 165.79 16.5005L168.973 21.027H166.228ZM165.322 10.1632C164.738 9.69598 163.892 9.46235 162.782 9.46235H159.803V14.9235H162.782C163.892 14.9235 164.738 14.6898 165.322 14.1934C165.907 13.7261 166.199 13.0544 166.199 12.1783C166.169 11.3022 165.907 10.6305 165.322 10.1632Z" fill="black"/>
<path d="M181.881 18.8952V21.027H171.601V7.30127H181.618V9.43314H174.142V12.996H180.771V15.0987H174.142V18.8952H181.881Z" fill="black"/>
<path d="M197.33 21.027L197.301 11.9447L192.803 19.4792H191.664L187.167 12.0615V21.027H184.743V7.30127H186.846L192.307 16.3836L197.622 7.30127H199.725L199.754 21.027H197.33Z" fill="black"/>
<path d="M30.4887 21.9028H1.63539C0.292013 21.9028 -0.467285 20.3842 0.350421 19.3036L14.2806 0.90527C15.2151 -0.321288 17.055 -0.321288 17.9603 0.90527L31.8029 19.2744C32.5914 20.355 31.8321 21.9028 30.4887 21.9028Z" fill="url(#paint0_linear_1684_365)"/>
<path d="M3.70883 25.4655L14.9523 10.6591C15.6824 9.69543 17.1133 9.72463 17.8142 10.6591L28.9701 25.4655C29.8462 26.6628 29.0285 28.3274 27.5391 28.3274H5.13981C3.65042 28.3274 2.80351 26.6336 3.70883 25.4655Z" fill="url(#paint1_linear_1684_365)"/>
<path d="M26.2542 21.9028L17.8143 10.6593C17.0842 9.69559 15.6824 9.69559 14.9523 10.6593L6.4248 21.9028H26.2542Z" fill="#6699FF"/>
</g>
<defs>
<linearGradient id="paint0_linear_1684_365" x1="0.0125732" y1="10.9441" x2="32.1223" y2="10.9441" gradientUnits="userSpaceOnUse">
<stop stop-color="#3F71FF"/>
<stop offset="1" stop-color="#6A73FF"/>
</linearGradient>
<linearGradient id="paint1_linear_1684_365" x1="3.33606" y1="19.1373" x2="29.3301" y2="19.1373" gradientUnits="userSpaceOnUse">
<stop stop-color="#3F71FF"/>
<stop offset="1" stop-color="#6A73FF"/>
</linearGradient>
<clipPath id="clip0_1684_365">
<rect width="199.754" height="28.3276" fill="white"/>
</clipPath>
</defs>
</svg>
